<svg xmlns="http://www.w3.org/2000/svg" enable-background="new 0 0 512 512" viewBox="0 0 512 512" id="education-app"><linearGradient id="a" x1="52.164" x2="459.851" y1="459.844" y2="52.156" gradientUnits="userSpaceOnUse"><stop offset="0" stop-color="#f3f348"></stop><stop offset=".224" stop-color="#cce64f"></stop><stop offset=".721" stop-color="#6ac761"></stop><stop offset="1" stop-color="#31b46c"></stop></linearGradient><path fill="url(#a)" d="M116.501,511.268c-17.202,0-31.184-13.982-31.184-31.092c-0.031,17.495,0.166-383.076,0-448.352c0-17.11,13.982-31.092,31.184-31.092h279.093c17.11,0,31.092,13.982,31.092,31.092c0,85.631,0,336.853,0,448.352c0,17.11-13.982,31.092-31.092,31.092H116.501z M281.838,466.227c0-14.238-11.584-25.822-25.822-25.822c-14.243,0-25.827,11.584-25.827,25.822c0,14.243,11.584,25.827,25.827,25.827C270.254,492.054,281.838,480.47,281.838,466.227z M225.347,43.381c0,3.809,3.09,6.899,6.899,6.899h47.539c3.809,0,6.899-3.09,6.899-6.899s-3.09-6.899-6.899-6.899h-47.539C228.437,36.482,225.347,39.572,225.347,43.381z M99.207,421.119h313.681V78.095H99.207V421.119z M256.016,454.203c-6.634,0-12.029,5.394-12.029,12.024c0,6.634,5.394,12.029,12.029,12.029c6.63,0,12.024-5.394,12.024-12.029C268.04,459.598,262.645,454.203,256.016,454.203z M264.419,271.362c-10.157,3.278-16.926-0.286-17.846-0.46l-96.496-39.187v59.241c0,3.496,2.575,6.439,6.071,6.808c36.428,4.691,70.095,22.353,94.748,49.95c2.665,3.045,7.611,3.076,10.303,0c24.653-27.597,58.32-45.259,94.748-49.95c3.495-0.368,6.071-3.312,6.071-6.808v-59.241C350.746,236.294,400.326,216.154,264.419,271.362z M388.879,272.282c-3.863,0-6.899,3.036-6.899,6.899v3.588c0,3.863,3.036,6.899,6.899,6.899c3.772,0,6.899-3.036,6.899-6.899v-3.588C395.778,275.318,392.651,272.282,388.879,272.282z M391.271,187.101l-132.647-53.813c-1.656-0.736-3.496-0.736-5.151,0l-132.831,53.905c-5.756,2.261-5.753,10.435,0,12.694l132.831,53.997c1.787,0.595,3.255,0.631,5.151,0l123.356-50.134v51.422c0,3.863,3.036,6.899,6.899,6.899c3.772,0,6.899-3.036,6.899-6.899V193.54C395.778,190.396,394.072,188.501,391.271,187.101z"></path></svg>